<svg width="83" height="18" viewBox="0 0 83 18" fill="none" xmlns="http://www.w3.org/2000/svg">
    <rect width="83" height="18" rx="6" fill="white"/>
    <g clip-path="url(#clip0_2_95)">
    <path d="M39.461 6.57021L38.0565 5.14461H37.0773L35.6727 6.57021L36.1762 7.08125L37.211 6.03036V12.0102H28.2904V12.7326H37.9228V6.03036L38.9582 7.08125L39.461 6.57021Z" fill="#313131"/>
    <path d="M11.2067 9.85735C10.6919 9.85735 10.3914 10.1576 10.2843 10.5347H10.1115V9.89459H9.3471V13.7931H10.1115V12.1801H10.2843C10.3866 12.5524 10.6872 12.8059 11.2067 12.8059C11.7516 12.8059 12.3528 12.2264 12.3528 11.3322C12.3528 10.438 11.7516 9.85735 11.2067 9.85735ZM10.8517 12.1333C10.3884 12.1333 10.1133 11.773 10.1133 11.3322C10.1133 10.8914 10.3866 10.5305 10.8517 10.5305C11.3167 10.5305 11.5907 10.8908 11.5907 11.3322C11.5907 11.7736 11.3185 12.1333 10.8517 12.1333Z" fill="#313131"/>
    <path d="M28.8927 5.10612C27.991 5.10612 27.3899 5.68562 27.3899 6.57978C27.3899 7.47393 27.991 8.05583 28.8927 8.05583C29.7944 8.05583 30.3956 7.47693 30.3956 6.58218C30.3956 5.68742 29.7944 5.10612 28.8927 5.10612ZM28.8927 7.38146C28.4295 7.38146 28.1543 7.02115 28.1543 6.57978C28.1543 6.1384 28.4295 5.7787 28.8927 5.7787C29.356 5.7787 29.6317 6.139 29.6317 6.57978C29.6317 7.02055 29.3613 7.38146 28.8927 7.38146Z" fill="#313131"/>
    <path d="M8.78675 5.14275H8.02232V7.33521H6.88632V5.14275H6.12247V8.00717H8.56251V8.80345H9.29617V7.33521H8.78675V5.14275Z" fill="#313131"/>
    <path d="M32.2605 4.83771C32.8818 4.83771 33.2131 4.51704 33.2587 4H32.6629C32.6422 4.18616 32.5404 4.34109 32.2605 4.34109C31.9955 4.34109 31.8783 4.18616 31.8576 4H31.2642C31.3074 4.51704 31.644 4.83771 32.2605 4.83771Z" fill="#313131"/>
    <path d="M32.357 5.14275L31.7766 7.30938L31.7257 7.74897H31.5778L31.6079 6.89564V5.14275H30.8542V8.00717H32.2961L32.8718 5.84054L32.9226 5.40097H33.0705L33.0398 6.25429V8.00717H33.7936V5.14275H32.357Z" fill="#313131"/>
    <path d="M11.8344 5.84054L11.8853 5.40097H12.0326L12.0024 6.25429V8.00717H12.7562V5.14275H11.3196L10.7386 7.30938L10.6877 7.74897H10.5398L10.5706 6.89564V5.14275H9.8168V8.00717H11.2587L11.8344 5.84054Z" fill="#313131"/>
    <path d="M14.7301 8.00714H14.8271V9.0412H15.5761V8.00714H15.6726C16.6358 8.00714 17.1654 7.40243 17.1654 6.57493C17.1654 5.75764 16.6252 5.15833 15.7034 5.14271H15.5761V4.05699H14.8271V5.14271H14.6975C13.7651 5.15833 13.2355 5.75764 13.2355 6.57493C13.2379 7.40243 13.7775 8.00714 14.7301 8.00714ZM15.5761 5.76304H15.6726C16.1672 5.77865 16.3962 6.12995 16.3962 6.57493C16.3962 7.03011 16.1672 7.37601 15.6726 7.39162H15.5761V5.76304ZM14.7253 5.76304H14.8271V7.39162H14.7153C14.236 7.37601 14.0017 7.03131 14.0017 6.57493C14.0017 6.12995 14.236 5.77865 14.7253 5.76304Z" fill="#313131"/>
    <path d="M6 12.759H6.76443V10.5665H7.97143V12.759H8.73587V9.89455H6V12.759Z" fill="#313131"/>
    <path d="M21.039 10.665H20.4024V9.89455H19.6379V12.759H21.039C21.7673 12.759 22.1632 12.3387 22.1632 11.7093C22.1632 11.08 21.7673 10.665 21.039 10.665ZM20.9272 12.087H20.4024V11.3166H20.9272C21.2987 11.3166 21.4005 11.4559 21.4005 11.7045C21.4005 11.9423 21.2987 12.087 20.9272 12.087Z" fill="#313131"/>
    <path d="M23.3625 9.89455H22.5981V12.759H23.3625V9.89455Z" fill="#313131"/>
    <path d="M25.8025 11.3166V11.1719C26.3273 11.089 26.4799 10.8926 26.4799 10.5461C26.4799 10.1636 26.164 9.89455 25.5883 9.89455H23.9736V12.759H25.6344C26.2764 12.759 26.6326 12.5056 26.6326 12.0246C26.6326 11.6114 26.4237 11.3886 25.8025 11.3166ZM24.7274 10.4759H25.3782C25.6279 10.4759 25.7096 10.5845 25.7096 10.7395C25.7096 10.8944 25.6279 10.9983 25.3782 10.9983H24.7274V10.4759ZM25.4611 12.1825H24.7274V11.57H25.4611C25.767 11.57 25.8587 11.6937 25.8587 11.8799C25.8587 12.066 25.767 12.1801 25.4611 12.1801V12.1825Z" fill="#313131"/>
    <path d="M22.5347 5.10612C21.633 5.10612 21.0318 5.68562 21.0318 6.57978C21.0318 7.47393 21.633 8.05583 22.5347 8.05583C23.4364 8.05583 24.0375 7.47693 24.0375 6.58218C24.0375 5.68742 23.4364 5.10612 22.5347 5.10612ZM22.5347 7.38146C22.0714 7.38146 21.7963 7.02115 21.7963 6.57978C21.7963 6.1384 22.0714 5.7787 22.5347 5.7787C22.9979 5.7787 23.2766 6.1408 23.2766 6.57978C23.2766 7.01875 23.0033 7.38146 22.5347 7.38146Z" fill="#313131"/>
    <path d="M20.6733 6.57978C20.6733 5.68562 20.0722 5.10612 19.5273 5.10612C19.0125 5.10612 18.712 5.40638 18.6055 5.7835H18.4321V5.14276H17.6694V9.04128H18.4339V7.42829H18.6072C18.709 7.80062 19.0096 8.05341 19.529 8.05341C20.074 8.05583 20.6733 7.47452 20.6733 6.57978ZM19.1705 7.38146C18.7072 7.38146 18.4321 7.02115 18.4321 6.57978C18.4321 6.1384 18.7072 5.7787 19.1705 5.7787C19.6338 5.7787 19.9095 6.139 19.9095 6.57978C19.9095 7.02055 19.6409 7.38146 19.1723 7.38146H19.1705Z" fill="#313131"/>
    <path d="M26.3249 6.56475V6.42003C26.8497 6.33716 27.0041 6.14079 27.0041 5.7943C27.0041 5.41117 26.6882 5.14275 26.1125 5.14275H24.4972V8.00717H26.158C26.8 8.00717 27.1568 7.75376 27.1568 7.27275C27.1556 6.859 26.945 6.63681 26.3249 6.56475ZM25.2504 5.72404H25.9013C26.1509 5.72404 26.232 5.83273 26.232 5.98766C26.232 6.14259 26.1509 6.24648 25.9013 6.24648H25.2504V5.72404ZM25.9841 7.43069H25.2504V6.81817H25.9841C26.2894 6.81817 26.3811 6.94187 26.3811 7.12803C26.3811 7.31419 26.2894 7.42828 25.9841 7.42828V7.43069Z" fill="#313131"/>
    <path d="M18.0333 9.85735C17.5186 9.85735 17.218 10.1576 17.1109 10.5347H16.9382V9.89459H16.1767V13.7931H16.9411V12.1801H17.1139C17.2162 12.5524 17.5168 12.8059 18.0363 12.8059C18.5812 12.8059 19.1823 12.2264 19.1823 11.3322C19.1823 10.438 18.5783 9.85735 18.0333 9.85735ZM17.6783 12.1321C17.2151 12.1321 16.9399 11.7718 16.9399 11.331C16.9399 10.8902 17.2151 10.5293 17.6783 10.5293C18.1416 10.5293 18.4173 10.8896 18.4173 11.331C18.4173 11.7724 18.1452 12.1333 17.6766 12.1333L17.6783 12.1321Z" fill="#313131"/>
    <path d="M14.2124 9.85735C13.3107 9.85735 12.7096 10.4362 12.7096 11.331C12.7096 12.2258 13.3107 12.8047 14.2124 12.8047C15.1141 12.8047 15.7152 12.2252 15.7152 11.331C15.7152 10.4369 15.1117 9.85735 14.2124 9.85735ZM14.2124 12.1321C13.7485 12.1321 13.474 11.7718 13.474 11.331C13.474 10.8902 13.7485 10.5293 14.2124 10.5293C14.6763 10.5293 14.9514 10.8896 14.9514 11.331C14.9514 11.7724 14.681 12.1333 14.2124 12.1333V12.1321Z" fill="#313131"/>
    <path d="M72.681 13.3511H46.0243C45.4573 13.3511 44.8957 13.2377 44.3717 13.0174C43.8477 12.7971 43.3713 12.4742 42.9703 12.0671C42.5693 11.6601 42.251 11.1768 42.034 10.645C41.817 10.1131 41.7053 9.54307 41.7053 8.96738C41.7053 8.39169 41.817 7.82165 42.034 7.28981C42.251 6.75795 42.5693 6.27469 42.9703 5.86762C43.3713 5.46056 43.8477 5.13766 44.3717 4.91735C44.8957 4.69705 45.4573 4.58366 46.0243 4.58366H72.681C73.248 4.58366 73.8097 4.69705 74.3337 4.91735C74.8577 5.13766 75.334 5.46056 75.735 5.86762C76.136 6.27469 76.4543 6.75795 76.6713 7.28981C76.8883 7.82165 77 8.39169 77 8.96738C77 9.54307 76.8883 10.1131 76.6713 10.645C76.4543 11.1768 76.136 11.6601 75.735 12.0671C75.334 12.4742 74.8577 12.7971 74.3337 13.0174C73.8097 13.2377 73.248 13.3511 72.681 13.3511ZM46.0243 5.00042C45.507 4.99396 44.9933 5.09182 44.5137 5.28832C44.0337 5.48483 43.597 5.77607 43.229 6.14516C42.8607 6.51425 42.5683 6.95385 42.369 7.43846C42.1693 7.92307 42.0667 8.44307 42.0667 8.96827C42.0667 9.49348 42.1693 10.0135 42.369 10.4981C42.5683 10.9827 42.8607 11.4223 43.229 11.7914C43.597 12.1605 44.0337 12.4517 44.5137 12.6482C44.9933 12.8448 45.507 12.9426 46.0243 12.9361H72.681C73.1983 12.9426 73.712 12.8448 74.1917 12.6482C74.6717 12.4517 75.1083 12.1605 75.4763 11.7914C75.8447 11.4223 76.137 10.9827 76.3363 10.4981C76.536 10.0135 76.6387 9.49348 76.6387 8.96827C76.6387 8.44307 76.536 7.92307 76.3363 7.43846C76.137 6.95385 75.8447 6.51425 75.4763 6.14516C75.1083 5.77607 74.6717 5.48483 74.1917 5.28832C73.712 5.09182 73.1983 4.99396 72.681 5.00042H46.0243Z" fill="#03FE33"/>
    <path d="M48.025 7.44753C48.3147 7.44096 48.5993 7.52448 48.841 7.68689C49.0823 7.8493 49.2693 8.08282 49.3763 8.3561L48.7007 8.5963C48.647 8.45937 48.5537 8.34217 48.433 8.26023C48.3123 8.1783 48.17 8.13551 48.025 8.13751C47.6053 8.13751 47.284 8.48041 47.284 8.93379C47.284 9.38717 47.6053 9.73548 48.025 9.73548C48.1707 9.73623 48.313 9.6923 48.4337 9.60948C48.554 9.52661 48.6473 9.40875 48.7007 9.27127L49.3763 9.51148C49.269 9.78455 49.0823 10.0178 48.8407 10.18C48.599 10.3422 48.3143 10.4255 48.025 10.4189C47.1693 10.4189 46.5213 9.77692 46.5213 8.93679C46.5213 8.09668 47.1693 7.44753 48.025 7.44753Z" fill="#313131"/>
    <path d="M52.6447 9.19686H50.4763C50.523 9.34772 50.6117 9.48165 50.7317 9.58255C50.8517 9.68348 50.998 9.74706 51.1527 9.76572C51.3077 9.78434 51.4643 9.75727 51.6043 9.68765C51.7443 9.61806 51.8613 9.50896 51.9417 9.37341L52.547 9.65024C52.3013 10.0982 51.833 10.4135 51.223 10.4135C50.3673 10.4135 49.7187 9.77155 49.7187 8.93141C49.7187 8.09131 50.3567 7.44937 51.198 7.44937C52.138 7.44757 52.7973 8.24386 52.6447 9.19686ZM50.4873 8.62517H51.9073C51.8637 8.46834 51.7697 8.33069 51.6407 8.23369C51.5117 8.13665 51.3543 8.08575 51.194 8.08893C51.035 8.08951 50.8807 8.142 50.7533 8.23855C50.626 8.33513 50.533 8.47068 50.4873 8.62517Z" fill="#313131"/>
    <path d="M55.4337 9.62076C55.4337 10.1072 54.9167 10.4116 54.219 10.4116C53.7067 10.4116 53.2133 10.2399 52.9063 9.93121L53.309 9.42858C53.5653 9.6772 53.9683 9.77086 54.219 9.77086C54.5297 9.77086 54.671 9.65076 54.671 9.50545C54.671 9.28986 54.442 9.23462 54.1103 9.23462H53.7013V8.6251H54.1103C54.442 8.6251 54.671 8.56986 54.671 8.35427C54.671 8.21076 54.5297 8.08886 54.219 8.08886C53.9683 8.08886 53.5653 8.18314 53.309 8.43714L52.9063 7.92852C53.211 7.61865 53.7067 7.4481 54.219 7.4481C54.9167 7.4481 55.4337 7.75196 55.4337 8.24438C55.4337 8.55965 55.197 8.85269 54.644 8.93017C55.194 9.00703 55.4337 9.30007 55.4337 9.62076Z" fill="#313131"/>
    <path d="M57.3787 7.44751C58.234 7.44751 58.8827 8.08885 58.8827 8.92958C58.8827 9.77027 58.2317 10.4116 57.3787 10.4116C56.5253 10.4116 55.8777 9.76968 55.8777 8.92958C55.8777 8.08944 56.523 7.44751 57.3787 7.44751ZM57.3787 9.72944C57.8033 9.72944 58.1193 9.38654 58.1193 8.92775C58.1193 8.46899 57.8033 8.13148 57.3787 8.13148C56.9537 8.13148 56.6377 8.4762 56.6377 8.92958C56.6377 9.38296 56.959 9.73123 57.3787 9.73123V9.72944Z" fill="#313131"/>
    <path d="M59.3883 10.3558V7.50276H60.1243V8.60287H61.399V7.50276H62.1343V10.3558H61.399V9.25683H60.1243V10.3558H59.3883Z" fill="#313131"/>
    <path d="M63.1693 7.45534C63.2983 7.45693 63.4217 7.51006 63.5123 7.60324C63.6033 7.69641 63.6543 7.82213 63.6543 7.95317C63.6543 8.08441 63.603 8.21027 63.5117 8.30306C63.42 8.39586 63.296 8.448 63.167 8.448C63.0377 8.448 62.9137 8.39586 62.822 8.30306C62.7307 8.21027 62.6793 8.08441 62.6793 7.95317C62.679 7.88775 62.6913 7.82293 62.716 7.76241C62.7403 7.70193 62.7767 7.64693 62.822 7.60065C62.8677 7.55438 62.9217 7.51772 62.9813 7.49275C63.041 7.46782 63.1047 7.4551 63.1693 7.45534ZM63.1693 9.41841C63.2983 9.42 63.4217 9.47313 63.5123 9.56631C63.6033 9.65948 63.6543 9.78517 63.6543 9.91624C63.6543 10.0475 63.603 10.1733 63.5117 10.2661C63.42 10.3589 63.296 10.4111 63.167 10.4111C63.0377 10.4111 62.9137 10.3589 62.822 10.2661C62.7307 10.1733 62.6793 10.0475 62.6793 9.91624C62.6787 9.85062 62.691 9.78555 62.7153 9.72476C62.7397 9.66396 62.7757 9.60872 62.8213 9.56217C62.8667 9.51562 62.921 9.47875 62.9807 9.45365C63.0407 9.42855 63.1047 9.41575 63.1693 9.416V9.41841Z" fill="#313131"/>
    <path d="M67.3097 7.50276H68.6443V10.3558H67.9527V7.66849L67.1897 10.3558H65.8547V7.50276H66.547V10.2122L67.3097 7.50276Z" fill="#313131"/>
    <path d="M70.714 7.50276H72.0493V10.3558H71.3573V7.66849L70.5947 10.3558H69.2597V7.50276H69.9513V10.2122L70.714 7.50276Z" fill="#313131"/>
    </g>
    <defs>
    <clipPath id="clip0_2_95">
    <rect width="71" height="10" fill="white" transform="translate(6 4)"/>
    </clipPath>
    </defs>
    </svg>
    