<svg width="71" height="10" viewBox="0 0 71 10" fill="none" xmlns="http://www.w3.org/2000/svg">
    <g clip-path="url(#clip0_1_70)">
    <path d="M33.461 2.57021L32.0565 1.14461H31.0773L29.6727 2.57021L30.1762 3.08125L31.211 2.03036V8.01021H22.2904V8.73263H31.9228V2.03036L32.9582 3.08125L33.461 2.57021Z" fill="#313131"/>
    <path d="M5.2067 5.85735C4.69193 5.85735 4.39137 6.15762 4.2843 6.53473H4.11153V5.89459H3.3471V9.7931H4.11153V8.18014H4.2843C4.38663 8.55245 4.6872 8.80586 5.2067 8.80586C5.75163 8.80586 6.35277 8.22638 6.35277 7.33221C6.35277 6.43804 5.75163 5.85735 5.2067 5.85735ZM4.8517 8.13328C4.38843 8.13328 4.1133 7.77297 4.1133 7.33221C4.1133 6.89141 4.38663 6.53052 4.8517 6.53052C5.31673 6.53052 5.5907 6.89083 5.5907 7.33221C5.5907 7.77359 5.31853 8.13328 4.8517 8.13328Z" fill="#313131"/>
    <path d="M22.8927 1.10612C21.991 1.10612 21.3899 1.68562 21.3899 2.57978C21.3899 3.47393 21.991 4.05583 22.8927 4.05583C23.7944 4.05583 24.3956 3.47693 24.3956 2.58218C24.3956 1.68742 23.7944 1.10612 22.8927 1.10612ZM22.8927 3.38146C22.4295 3.38146 22.1543 3.02115 22.1543 2.57978C22.1543 2.1384 22.4295 1.7787 22.8927 1.7787C23.356 1.7787 23.6317 2.139 23.6317 2.57978C23.6317 3.02055 23.3613 3.38146 22.8927 3.38146Z" fill="#313131"/>
    <path d="M2.78675 1.14275H2.02232V3.33521H0.886317V1.14275H0.122475V4.00717H2.56251V4.80345H3.29617V3.33521H2.78675V1.14275Z" fill="#313131"/>
    <path d="M26.2605 0.83771C26.8818 0.83771 27.2131 0.517038 27.2587 0H26.6629C26.6422 0.186158 26.5404 0.341089 26.2605 0.341089C25.9955 0.341089 25.8783 0.186158 25.8576 0H25.2642C25.3074 0.517038 25.644 0.83771 26.2605 0.83771Z" fill="#313131"/>
    <path d="M26.357 1.14275L25.7766 3.30938L25.7257 3.74897H25.5778L25.6079 2.89564V1.14275H24.8542V4.00717H26.2961L26.8718 1.84054L26.9226 1.40097H27.0705L27.0398 2.25429V4.00717H27.7936V1.14275H26.357Z" fill="#313131"/>
    <path d="M5.8344 1.84054L5.88527 1.40097H6.0326L6.00244 2.25429V4.00717H6.7562V1.14275H5.31964L4.73864 3.30938L4.68774 3.74897H4.53984L4.5706 2.89564V1.14275H3.8168V4.00717H5.2587L5.8344 1.84054Z" fill="#313131"/>
    <path d="M8.73006 4.00714H8.8271V5.0412H9.57613V4.00714H9.6726C10.6358 4.00714 11.1654 3.40243 11.1654 2.57493C11.1654 1.75764 10.6252 1.15833 9.70336 1.14271H9.57613V0.0569916H8.8271V1.14271H8.69753C7.76506 1.15833 7.2355 1.75764 7.2355 2.57493C7.23786 3.40243 7.77746 4.00714 8.73006 4.00714ZM9.57613 1.76304H9.6726C10.1672 1.77865 10.3962 2.12995 10.3962 2.57493C10.3962 3.03011 10.1672 3.37601 9.6726 3.39162H9.57613V1.76304ZM8.72533 1.76304H8.8271V3.39162H8.71526C8.23603 3.37601 8.00173 3.03131 8.00173 2.57493C8.00173 2.12995 8.23603 1.77865 8.72533 1.76304Z" fill="#313131"/>
    <path d="M0 8.75899H0.764433V6.56655H1.97143V8.75899H2.73587V5.89455H0V8.75899Z" fill="#313131"/>
    <path d="M15.039 6.66503H14.4024V5.89455H13.6379V8.75899H15.039C15.7673 8.75899 16.1632 8.33865 16.1632 7.70931C16.1632 7.07996 15.7673 6.66503 15.039 6.66503ZM14.9272 8.08703H14.4024V7.31658H14.9272C15.2987 7.31658 15.4005 7.45589 15.4005 7.70451C15.4005 7.9423 15.2987 8.08703 14.9272 8.08703Z" fill="#313131"/>
    <path d="M17.3625 5.89455H16.5981V8.75899H17.3625V5.89455Z" fill="#313131"/>
    <path d="M19.8025 7.31658V7.17186C20.3273 7.08896 20.4799 6.89262 20.4799 6.5461C20.4799 6.16358 20.164 5.89455 19.5883 5.89455H17.9736V8.75899H19.6344C20.2764 8.75899 20.6326 8.50558 20.6326 8.02458C20.6326 7.61141 20.4237 7.38862 19.8025 7.31658ZM18.7274 6.47586H19.3782C19.6279 6.47586 19.7096 6.58455 19.7096 6.73948C19.7096 6.89441 19.6279 6.9983 19.3782 6.9983H18.7274V6.47586ZM19.4611 8.18251H18.7274V7.56999H19.4611C19.767 7.56999 19.8587 7.69368 19.8587 7.87986C19.8587 8.06599 19.767 8.1801 19.4611 8.1801V8.18251Z" fill="#313131"/>
    <path d="M16.5347 1.10612C15.633 1.10612 15.0318 1.68562 15.0318 2.57978C15.0318 3.47393 15.633 4.05583 16.5347 4.05583C17.4364 4.05583 18.0375 3.47693 18.0375 2.58218C18.0375 1.68742 17.4364 1.10612 16.5347 1.10612ZM16.5347 3.38146C16.0714 3.38146 15.7963 3.02115 15.7963 2.57978C15.7963 2.1384 16.0714 1.7787 16.5347 1.7787C16.9979 1.7787 17.2766 2.1408 17.2766 2.57978C17.2766 3.01875 17.0033 3.38146 16.5347 3.38146Z" fill="#313131"/>
    <path d="M14.6733 2.57978C14.6733 1.68562 14.0722 1.10612 13.5273 1.10612C13.0125 1.10612 12.712 1.40638 12.6055 1.7835H12.4321V1.14276H11.6694V5.04128H12.4339V3.42829H12.6072C12.709 3.80062 13.0096 4.05341 13.529 4.05341C14.074 4.05583 14.6733 3.47452 14.6733 2.57978ZM13.1705 3.38146C12.7072 3.38146 12.4321 3.02115 12.4321 2.57978C12.4321 2.1384 12.7072 1.7787 13.1705 1.7787C13.6338 1.7787 13.9095 2.139 13.9095 2.57978C13.9095 3.02055 13.6409 3.38146 13.1723 3.38146H13.1705Z" fill="#313131"/>
    <path d="M20.3249 2.56475V2.42003C20.8497 2.33716 21.0041 2.14079 21.0041 1.7943C21.0041 1.41117 20.6882 1.14275 20.1125 1.14275H18.4972V4.00717H20.158C20.8 4.00717 21.1568 3.75376 21.1568 3.27275C21.1556 2.859 20.945 2.63681 20.3249 2.56475ZM19.2504 1.72404H19.9013C20.1509 1.72404 20.232 1.83273 20.232 1.98766C20.232 2.14259 20.1509 2.24648 19.9013 2.24648H19.2504V1.72404ZM19.9841 3.43069H19.2504V2.81817H19.9841C20.2894 2.81817 20.3811 2.94187 20.3811 3.12803C20.3811 3.31419 20.2894 3.42828 19.9841 3.42828V3.43069Z" fill="#313131"/>
    <path d="M12.0333 5.85735C11.5186 5.85735 11.218 6.15762 11.1109 6.53473H10.9382V5.89459H10.1767V9.7931H10.9411V8.18014H11.1139C11.2162 8.55245 11.5168 8.80586 12.0363 8.80586C12.5812 8.80586 13.1823 8.22638 13.1823 7.33221C13.1823 6.43804 12.5783 5.85735 12.0333 5.85735ZM11.6783 8.13207C11.2151 8.13207 10.9399 7.77179 10.9399 7.331C10.9399 6.89024 11.2151 6.52931 11.6783 6.52931C12.1416 6.52931 12.4173 6.88962 12.4173 7.331C12.4173 7.77238 12.1452 8.13328 11.6766 8.13328L11.6783 8.13207Z" fill="#313131"/>
    <path d="M8.2124 5.85735C7.3107 5.85735 6.70956 6.43624 6.70956 7.331C6.70956 8.22576 7.3107 8.80466 8.2124 8.80466C9.1141 8.80466 9.71523 8.22517 9.71523 7.331C9.71523 6.43686 9.11173 5.85735 8.2124 5.85735ZM8.2124 8.13207C7.74853 8.13207 7.474 7.77179 7.474 7.331C7.474 6.89024 7.74853 6.52931 8.2124 6.52931C8.67626 6.52931 8.95136 6.88962 8.95136 7.331C8.95136 7.77238 8.681 8.13328 8.2124 8.13328V8.13207Z" fill="#313131"/>
    <path d="M66.681 9.3511H40.0243C39.4573 9.3511 38.8957 9.23772 38.3717 9.01741C37.8477 8.7971 37.3713 8.4742 36.9703 8.06714C36.5693 7.66007 36.251 7.17683 36.034 6.64496C35.817 6.1131 35.7053 5.54307 35.7053 4.96738C35.7053 4.39169 35.817 3.82165 36.034 3.28981C36.251 2.75795 36.5693 2.27469 36.9703 1.86762C37.3713 1.46056 37.8477 1.13766 38.3717 0.917354C38.8957 0.69705 39.4573 0.583664 40.0243 0.583664H66.681C67.248 0.583664 67.8097 0.69705 68.3337 0.917354C68.8577 1.13766 69.334 1.46056 69.735 1.86762C70.136 2.27469 70.4543 2.75795 70.6713 3.28981C70.8883 3.82165 71 4.39169 71 4.96738C71 5.54307 70.8883 6.1131 70.6713 6.64496C70.4543 7.17683 70.136 7.66007 69.735 8.06714C69.334 8.4742 68.8577 8.7971 68.3337 9.01741C67.8097 9.23772 67.248 9.3511 66.681 9.3511ZM40.0243 1.00042C39.507 0.993957 38.9933 1.09182 38.5137 1.28832C38.0337 1.48483 37.597 1.77607 37.229 2.14516C36.8607 2.51425 36.5683 2.95385 36.369 3.43846C36.1693 3.92307 36.0667 4.44307 36.0667 4.96827C36.0667 5.49348 36.1693 6.01348 36.369 6.4981C36.5683 6.98272 36.8607 7.42231 37.229 7.79141C37.597 8.16048 38.0337 8.45172 38.5137 8.64824C38.9933 8.84476 39.507 8.94262 40.0243 8.93614H66.681C67.1983 8.94262 67.712 8.84476 68.1917 8.64824C68.6717 8.45172 69.1083 8.16048 69.4763 7.79141C69.8447 7.42231 70.137 6.98272 70.3363 6.4981C70.536 6.01348 70.6387 5.49348 70.6387 4.96827C70.6387 4.44307 70.536 3.92307 70.3363 3.43846C70.137 2.95385 69.8447 2.51425 69.4763 2.14516C69.1083 1.77607 68.6717 1.48483 68.1917 1.28832C67.712 1.09182 67.1983 0.993957 66.681 1.00042H40.0243Z" fill="#03FE33"/>
    <path d="M42.025 3.44753C42.3147 3.44096 42.5993 3.52448 42.841 3.68689C43.0823 3.8493 43.2693 4.08282 43.3763 4.3561L42.7007 4.5963C42.647 4.45937 42.5537 4.34217 42.433 4.26023C42.3123 4.1783 42.17 4.13551 42.025 4.13751C41.6053 4.13751 41.284 4.48041 41.284 4.93379C41.284 5.38717 41.6053 5.73548 42.025 5.73548C42.1707 5.73623 42.313 5.6923 42.4337 5.60948C42.554 5.52661 42.6473 5.40875 42.7007 5.27127L43.3763 5.51148C43.269 5.78455 43.0823 6.01782 42.8407 6.17999C42.599 6.34217 42.3143 6.42551 42.025 6.41886C41.1693 6.41886 40.5213 5.77692 40.5213 4.93679C40.5213 4.09668 41.1693 3.44753 42.025 3.44753Z" fill="#313131"/>
    <path d="M46.6447 5.19686H44.4763C44.523 5.34772 44.6117 5.48165 44.7317 5.58255C44.8517 5.68348 44.998 5.74706 45.1527 5.76572C45.3077 5.78434 45.4643 5.75727 45.6043 5.68765C45.7443 5.61806 45.8613 5.50896 45.9417 5.37341L46.547 5.65024C46.3013 6.0982 45.833 6.41348 45.223 6.41348C44.3673 6.41348 43.7187 5.77155 43.7187 4.93141C43.7187 4.09131 44.3567 3.44937 45.198 3.44937C46.138 3.44757 46.7973 4.24386 46.6447 5.19686ZM44.4873 4.62517H45.9073C45.8637 4.46834 45.7697 4.33069 45.6407 4.23369C45.5117 4.13665 45.3543 4.08575 45.194 4.08893C45.035 4.08951 44.8807 4.142 44.7533 4.23855C44.626 4.33513 44.533 4.47068 44.4873 4.62517Z" fill="#313131"/>
    <path d="M49.4337 5.62076C49.4337 6.10717 48.9167 6.41162 48.219 6.41162C47.7067 6.41162 47.2133 6.23986 46.9063 5.93121L47.309 5.42858C47.5653 5.6772 47.9683 5.77086 48.219 5.77086C48.5297 5.77086 48.671 5.65076 48.671 5.50545C48.671 5.28986 48.442 5.23462 48.1103 5.23462H47.7013V4.6251H48.1103C48.442 4.6251 48.671 4.56986 48.671 4.35427C48.671 4.21076 48.5297 4.08886 48.219 4.08886C47.9683 4.08886 47.5653 4.18314 47.309 4.43714L46.9063 3.92852C47.211 3.61865 47.7067 3.4481 48.219 3.4481C48.9167 3.4481 49.4337 3.75196 49.4337 4.24438C49.4337 4.55965 49.197 4.85269 48.644 4.93017C49.194 5.00703 49.4337 5.30007 49.4337 5.62076Z" fill="#313131"/>
    <path d="M51.3787 3.44751C52.234 3.44751 52.8827 4.08885 52.8827 4.92958C52.8827 5.77027 52.2317 6.41161 51.3787 6.41161C50.5253 6.41161 49.8777 5.76968 49.8777 4.92958C49.8777 4.08944 50.523 3.44751 51.3787 3.44751ZM51.3787 5.72944C51.8033 5.72944 52.1193 5.38654 52.1193 4.92775C52.1193 4.46899 51.8033 4.13148 51.3787 4.13148C50.9537 4.13148 50.6377 4.4762 50.6377 4.92958C50.6377 5.38296 50.959 5.73123 51.3787 5.73123V5.72944Z" fill="#313131"/>
    <path d="M53.3883 6.35576V3.50276H54.1243V4.60287H55.399V3.50276H56.1343V6.35576H55.399V5.25683H54.1243V6.35576H53.3883Z" fill="#313131"/>
    <path d="M57.1693 3.45534C57.2983 3.45693 57.4217 3.51006 57.5123 3.60324C57.6033 3.69641 57.6543 3.82213 57.6543 3.95317C57.6543 4.08441 57.603 4.21027 57.5117 4.30306C57.42 4.39586 57.296 4.448 57.167 4.448C57.0377 4.448 56.9137 4.39586 56.822 4.30306C56.7307 4.21027 56.6793 4.08441 56.6793 3.95317C56.679 3.88775 56.6913 3.82293 56.716 3.76241C56.7403 3.70193 56.7767 3.64693 56.822 3.60065C56.8677 3.55438 56.9217 3.51772 56.9813 3.49275C57.041 3.46782 57.1047 3.4551 57.1693 3.45534ZM57.1693 5.41841C57.2983 5.42 57.4217 5.47313 57.5123 5.56631C57.6033 5.65948 57.6543 5.78517 57.6543 5.91624C57.6543 6.04748 57.603 6.17334 57.5117 6.26613C57.42 6.35893 57.296 6.41106 57.167 6.41106C57.0377 6.41106 56.9137 6.35893 56.822 6.26613C56.7307 6.17334 56.6793 6.04748 56.6793 5.91624C56.6787 5.85062 56.691 5.78555 56.7153 5.72476C56.7397 5.66396 56.7757 5.60872 56.8213 5.56217C56.8667 5.51562 56.921 5.47875 56.9807 5.45365C57.0407 5.42855 57.1047 5.41575 57.1693 5.416V5.41841Z" fill="#313131"/>
    <path d="M61.3097 3.50276H62.6443V6.35576H61.9527V3.66849L61.1897 6.35576H59.8547V3.50276H60.547V6.21224L61.3097 3.50276Z" fill="#313131"/>
    <path d="M64.714 3.50276H66.0493V6.35576H65.3573V3.66849L64.5947 6.35576H63.2597V3.50276H63.9513V6.21224L64.714 3.50276Z" fill="#313131"/>
    </g>
    <defs>
    <clipPath id="clip0_1_70">
    <rect width="71" height="10" fill="white"/>
    </clipPath>
    </defs>
    </svg>
    