<svg width="71" height="61" viewBox="0 0 71 61" fill="none" xmlns="http://www.w3.org/2000/svg">
    <rect x="12.75" y="0.75" width="43.5" height="45.5" rx="2.25" stroke="#313131" stroke-width="1.5"/>
    <path d="M46.8262 11.75C46.6468 12.1385 46.4293 12.6081 46.1973 13.1182C45.581 14.473 44.8461 16.1237 44.3877 17.2666C44.3396 17.3864 44.1979 17.5485 43.8643 17.7148C43.54 17.8765 43.1224 17.9975 42.6816 18.082C42.3509 18.1455 42.0262 18.1812 41.75 18.2061V11.75H46.8262Z" stroke="#313131" stroke-width="1.5"/>
    <path d="M46.8262 21.75C46.6468 22.1385 46.4293 22.6081 46.1973 23.1182C45.581 24.473 44.8461 26.1237 44.3877 27.2666C44.3396 27.3864 44.1979 27.5485 43.8643 27.7148C43.54 27.8765 43.1224 27.9975 42.6816 28.082C42.3509 28.1455 42.0262 28.1812 41.75 28.2061V21.75H46.8262Z" stroke="#313131" stroke-width="1.5"/>
    <path d="M46.8262 31.75C46.6468 32.1385 46.4293 32.6081 46.1973 33.1182C45.581 34.473 44.8461 36.1237 44.3877 37.2666C44.3396 37.3864 44.1979 37.5485 43.8643 37.7148C43.54 37.8765 43.1224 37.9975 42.6816 38.082C42.3509 38.1455 42.0262 38.1812 41.75 38.2061V31.75H46.8262Z" stroke="#313131" stroke-width="1.5"/>
    <path d="M22.1738 11.75C22.3532 12.1385 22.5707 12.6081 22.8027 13.1182C23.419 14.473 24.1539 16.1237 24.6123 17.2666C24.6604 17.3864 24.8021 17.5485 25.1357 17.7148C25.46 17.8765 25.8776 17.9975 26.3184 18.082C26.6491 18.1455 26.9738 18.1812 27.25 18.2061V11.75H22.1738Z" stroke="#313131" stroke-width="1.5"/>
    <path d="M22.1738 21.75C22.3532 22.1385 22.5707 22.6081 22.8027 23.1182C23.419 24.473 24.1539 26.1237 24.6123 27.2666C24.6604 27.3864 24.8021 27.5485 25.1357 27.7148C25.46 27.8765 25.8776 27.9975 26.3184 28.082C26.6491 28.1455 26.9738 28.1812 27.25 28.2061V21.75H22.1738Z" stroke="#313131" stroke-width="1.5"/>
    <path d="M22.1738 31.75C22.3532 32.1385 22.5707 32.6081 22.8027 33.1182C23.419 34.473 24.1539 36.1237 24.6123 37.2666C24.6604 37.3864 24.8021 37.5485 25.1357 37.7148C25.46 37.8765 25.8776 37.9975 26.3184 38.082C26.6491 38.1455 26.9738 38.1812 27.25 38.2061V31.75H22.1738Z" stroke="#313131" stroke-width="1.5"/>
    <rect x="27.75" y="7.75" width="13.5" height="33.5" rx="2.25" stroke="#313131" stroke-width="1.5"/>
    <circle cx="34.5" cy="14.5" r="3.75" fill="#FF0000" stroke="#313131" stroke-width="1.5"/>
    <circle cx="34.5" cy="24.5" r="3.75" fill="#E6FF2C" stroke="#313131" stroke-width="1.5"/>
    <circle cx="34.5" cy="34.5" r="3.75" fill="#00AA61" stroke="#313131" stroke-width="1.5"/>
    <line x1="34.75" y1="41" x2="34.75" y2="46" stroke="#313131" stroke-width="1.5"/>
    <circle cx="49.5" cy="40.5" r="1" stroke="#313131"/>
    <circle cx="47.5" cy="7.5" r="1" stroke="#313131"/>
    <circle cx="21.5" cy="7.5" r="1" stroke="#313131"/>
    <circle cx="16.5" cy="36.5" r="1" stroke="#313131"/>
    <circle cx="20.5" cy="40.5" r="1" stroke="#313131"/>
    <circle cx="52.5" cy="33.5" r="1" stroke="#313131"/>
    <circle cx="43.5" cy="4.5" r="1" stroke="#313131"/>
    <circle cx="16.5" cy="8.5" r="1" stroke="#313131"/>
    <path d="M52.5 1V6L50.5 8H48" stroke="#313131"/>
    <path d="M18 1.5V3.5L21 6.5" stroke="#313131"/>
    <path d="M16 46V37" stroke="#313131"/>
    <path d="M53 45.5V43.5L50.5 41" stroke="#313131"/>
    <path d="M18 46V43L19.5 41.5" stroke="#313131"/>
    <path d="M16 1.5V8" stroke="#313131"/>
    <path d="M56 40H54.5L52.5 38V34.5" stroke="#313131"/>
    <g clip-path="url(#clip0_0_1)">
    <path d="M33.461 53.5702L32.0565 52.1446H31.0773L29.6727 53.5702L30.1762 54.0812L31.211 53.0304V59.0102H22.2904V59.7326H31.9228V53.0304L32.9582 54.0812L33.461 53.5702Z" fill="#313131"/>
    <path d="M5.2067 56.8573C4.69193 56.8573 4.39137 57.1576 4.2843 57.5347H4.11153V56.8946H3.3471V60.7931H4.11153V59.1801H4.2843C4.38663 59.5524 4.6872 59.8059 5.2067 59.8059C5.75163 59.8059 6.35277 59.2264 6.35277 58.3322C6.35277 57.438 5.75163 56.8573 5.2067 56.8573ZM4.8517 59.1333C4.38843 59.1333 4.1133 58.773 4.1133 58.3322C4.1133 57.8914 4.38663 57.5305 4.8517 57.5305C5.31673 57.5305 5.5907 57.8908 5.5907 58.3322C5.5907 58.7736 5.31853 59.1333 4.8517 59.1333Z" fill="#313131"/>
    <path d="M22.8927 52.1061C21.991 52.1061 21.3899 52.6856 21.3899 53.5798C21.3899 54.4739 21.991 55.0558 22.8927 55.0558C23.7944 55.0558 24.3956 54.4769 24.3956 53.5822C24.3956 52.6874 23.7944 52.1061 22.8927 52.1061ZM22.8927 54.3815C22.4295 54.3815 22.1543 54.0211 22.1543 53.5798C22.1543 53.1384 22.4295 52.7787 22.8927 52.7787C23.356 52.7787 23.6317 53.139 23.6317 53.5798C23.6317 54.0205 23.3613 54.3815 22.8927 54.3815Z" fill="#313131"/>
    <path d="M2.78675 52.1427H2.02232V54.3352H0.886317V52.1427H0.122475V55.0072H2.56251V55.8034H3.29617V54.3352H2.78675V52.1427Z" fill="#313131"/>
    <path d="M26.2605 51.8377C26.8818 51.8377 27.2131 51.517 27.2587 51H26.6629C26.6422 51.1862 26.5404 51.3411 26.2605 51.3411C25.9955 51.3411 25.8783 51.1862 25.8576 51H25.2642C25.3074 51.517 25.644 51.8377 26.2605 51.8377Z" fill="#313131"/>
    <path d="M26.357 52.1427L25.7766 54.3094L25.7257 54.749H25.5778L25.6079 53.8956V52.1427H24.8542V55.0072H26.2961L26.8718 52.8405L26.9226 52.401H27.0705L27.0398 53.2543V55.0072H27.7936V52.1427H26.357Z" fill="#313131"/>
    <path d="M5.8344 52.8405L5.88527 52.401H6.0326L6.00244 53.2543V55.0072H6.7562V52.1427H5.31964L4.73864 54.3094L4.68774 54.749H4.53984L4.5706 53.8956V52.1427H3.8168V55.0072H5.2587L5.8344 52.8405Z" fill="#313131"/>
    <path d="M8.73006 55.0071H8.8271V56.0412H9.57613V55.0071H9.6726C10.6358 55.0071 11.1654 54.4024 11.1654 53.5749C11.1654 52.7576 10.6252 52.1583 9.70336 52.1427H9.57613V51.057H8.8271V52.1427H8.69753C7.76506 52.1583 7.2355 52.7576 7.2355 53.5749C7.23786 54.4024 7.77746 55.0071 8.73006 55.0071ZM9.57613 52.763H9.6726C10.1672 52.7787 10.3962 53.1299 10.3962 53.5749C10.3962 54.0301 10.1672 54.376 9.6726 54.3916H9.57613V52.763ZM8.72533 52.763H8.8271V54.3916H8.71526C8.23603 54.376 8.00173 54.0313 8.00173 53.5749C8.00173 53.1299 8.23603 52.7787 8.72533 52.763Z" fill="#313131"/>
    <path d="M0 59.759H0.764433V57.5665H1.97143V59.759H2.73587V56.8945H0V59.759Z" fill="#313131"/>
    <path d="M15.039 57.665H14.4024V56.8945H13.6379V59.759H15.039C15.7673 59.759 16.1632 59.3387 16.1632 58.7093C16.1632 58.08 15.7673 57.665 15.039 57.665ZM14.9272 59.087H14.4024V58.3166H14.9272C15.2987 58.3166 15.4005 58.4559 15.4005 58.7045C15.4005 58.9423 15.2987 59.087 14.9272 59.087Z" fill="#313131"/>
    <path d="M17.3625 56.8945H16.5981V59.759H17.3625V56.8945Z" fill="#313131"/>
    <path d="M19.8025 58.3166V58.1719C20.3273 58.089 20.4799 57.8926 20.4799 57.5461C20.4799 57.1636 20.164 56.8945 19.5883 56.8945H17.9736V59.759H19.6344C20.2764 59.759 20.6326 59.5056 20.6326 59.0246C20.6326 58.6114 20.4237 58.3886 19.8025 58.3166ZM18.7274 57.4759H19.3782C19.6279 57.4759 19.7096 57.5845 19.7096 57.7395C19.7096 57.8944 19.6279 57.9983 19.3782 57.9983H18.7274V57.4759ZM19.4611 59.1825H18.7274V58.57H19.4611C19.767 58.57 19.8587 58.6937 19.8587 58.8799C19.8587 59.066 19.767 59.1801 19.4611 59.1801V59.1825Z" fill="#313131"/>
    <path d="M16.5347 52.1061C15.633 52.1061 15.0318 52.6856 15.0318 53.5798C15.0318 54.4739 15.633 55.0558 16.5347 55.0558C17.4364 55.0558 18.0375 54.4769 18.0375 53.5822C18.0375 52.6874 17.4364 52.1061 16.5347 52.1061ZM16.5347 54.3815C16.0714 54.3815 15.7963 54.0211 15.7963 53.5798C15.7963 53.1384 16.0714 52.7787 16.5347 52.7787C16.9979 52.7787 17.2766 53.1408 17.2766 53.5798C17.2766 54.0187 17.0033 54.3815 16.5347 54.3815Z" fill="#313131"/>
    <path d="M14.6733 53.5798C14.6733 52.6856 14.0722 52.1061 13.5273 52.1061C13.0125 52.1061 12.712 52.4064 12.6055 52.7835H12.4321V52.1428H11.6694V56.0413H12.4339V54.4283H12.6072C12.709 54.8006 13.0096 55.0534 13.529 55.0534C14.074 55.0558 14.6733 54.4745 14.6733 53.5798ZM13.1705 54.3815C12.7072 54.3815 12.4321 54.0211 12.4321 53.5798C12.4321 53.1384 12.7072 52.7787 13.1705 52.7787C13.6338 52.7787 13.9095 53.139 13.9095 53.5798C13.9095 54.0205 13.6409 54.3815 13.1723 54.3815H13.1705Z" fill="#313131"/>
    <path d="M20.3249 53.5648V53.42C20.8497 53.3372 21.0041 53.1408 21.0041 52.7943C21.0041 52.4112 20.6882 52.1427 20.1125 52.1427H18.4972V55.0072H20.158C20.8 55.0072 21.1568 54.7538 21.1568 54.2728C21.1556 53.859 20.945 53.6368 20.3249 53.5648ZM19.2504 52.724H19.9013C20.1509 52.724 20.232 52.8327 20.232 52.9877C20.232 53.1426 20.1509 53.2465 19.9013 53.2465H19.2504V52.724ZM19.9841 54.4307H19.2504V53.8182H19.9841C20.2894 53.8182 20.3811 53.9419 20.3811 54.128C20.3811 54.3142 20.2894 54.4283 19.9841 54.4283V54.4307Z" fill="#313131"/>
    <path d="M12.0333 56.8573C11.5186 56.8573 11.218 57.1576 11.1109 57.5347H10.9382V56.8946H10.1767V60.7931H10.9411V59.1801H11.1139C11.2162 59.5524 11.5168 59.8059 12.0363 59.8059C12.5812 59.8059 13.1823 59.2264 13.1823 58.3322C13.1823 57.438 12.5783 56.8573 12.0333 56.8573ZM11.6783 59.1321C11.2151 59.1321 10.9399 58.7718 10.9399 58.331C10.9399 57.8902 11.2151 57.5293 11.6783 57.5293C12.1416 57.5293 12.4173 57.8896 12.4173 58.331C12.4173 58.7724 12.1452 59.1333 11.6766 59.1333L11.6783 59.1321Z" fill="#313131"/>
    <path d="M8.2124 56.8573C7.3107 56.8573 6.70956 57.4362 6.70956 58.331C6.70956 59.2258 7.3107 59.8047 8.2124 59.8047C9.1141 59.8047 9.71523 59.2252 9.71523 58.331C9.71523 57.4369 9.11173 56.8573 8.2124 56.8573ZM8.2124 59.1321C7.74853 59.1321 7.474 58.7718 7.474 58.331C7.474 57.8902 7.74853 57.5293 8.2124 57.5293C8.67626 57.5293 8.95136 57.8896 8.95136 58.331C8.95136 58.7724 8.681 59.1333 8.2124 59.1333V59.1321Z" fill="#313131"/>
    <path d="M66.681 60.3511H40.0243C39.4573 60.3511 38.8957 60.2377 38.3717 60.0174C37.8477 59.7971 37.3713 59.4742 36.9703 59.0671C36.5693 58.6601 36.251 58.1768 36.034 57.645C35.817 57.1131 35.7053 56.5431 35.7053 55.9674C35.7053 55.3917 35.817 54.8217 36.034 54.2898C36.251 53.7579 36.5693 53.2747 36.9703 52.8676C37.3713 52.4606 37.8477 52.1377 38.3717 51.9174C38.8957 51.6971 39.4573 51.5837 40.0243 51.5837H66.681C67.248 51.5837 67.8097 51.6971 68.3337 51.9174C68.8577 52.1377 69.334 52.4606 69.735 52.8676C70.136 53.2747 70.4543 53.7579 70.6713 54.2898C70.8883 54.8217 71 55.3917 71 55.9674C71 56.5431 70.8883 57.1131 70.6713 57.645C70.4543 58.1768 70.136 58.6601 69.735 59.0671C69.334 59.4742 68.8577 59.7971 68.3337 60.0174C67.8097 60.2377 67.248 60.3511 66.681 60.3511ZM40.0243 52.0004C39.507 51.994 38.9933 52.0918 38.5137 52.2883C38.0337 52.4848 37.597 52.7761 37.229 53.1452C36.8607 53.5143 36.5683 53.9538 36.369 54.4385C36.1693 54.9231 36.0667 55.4431 36.0667 55.9683C36.0667 56.4935 36.1693 57.0135 36.369 57.4981C36.5683 57.9827 36.8607 58.4223 37.229 58.7914C37.597 59.1605 38.0337 59.4517 38.5137 59.6482C38.9933 59.8448 39.507 59.9426 40.0243 59.9361H66.681C67.1983 59.9426 67.712 59.8448 68.1917 59.6482C68.6717 59.4517 69.1083 59.1605 69.4763 58.7914C69.8447 58.4223 70.137 57.9827 70.3363 57.4981C70.536 57.0135 70.6387 56.4935 70.6387 55.9683C70.6387 55.4431 70.536 54.9231 70.3363 54.4385C70.137 53.9538 69.8447 53.5143 69.4763 53.1452C69.1083 52.7761 68.6717 52.4848 68.1917 52.2883C67.712 52.0918 67.1983 51.994 66.681 52.0004H40.0243Z" fill="#03FE33"/>
    <path d="M42.025 54.4475C42.3147 54.441 42.5993 54.5245 42.841 54.6869C43.0823 54.8493 43.2693 55.0828 43.3763 55.3561L42.7007 55.5963C42.647 55.4594 42.5537 55.3422 42.433 55.2602C42.3123 55.1783 42.17 55.1355 42.025 55.1375C41.6053 55.1375 41.284 55.4804 41.284 55.9338C41.284 56.3872 41.6053 56.7355 42.025 56.7355C42.1707 56.7362 42.313 56.6923 42.4337 56.6095C42.554 56.5266 42.6473 56.4088 42.7007 56.2713L43.3763 56.5115C43.269 56.7845 43.0823 57.0178 42.8407 57.18C42.599 57.3422 42.3143 57.4255 42.025 57.4189C41.1693 57.4189 40.5213 56.7769 40.5213 55.9368C40.5213 55.0967 41.1693 54.4475 42.025 54.4475Z" fill="#313131"/>
    <path d="M46.6447 56.1969H44.4763C44.523 56.3477 44.6117 56.4817 44.7317 56.5825C44.8517 56.6835 44.998 56.7471 45.1527 56.7657C45.3077 56.7843 45.4643 56.7573 45.6043 56.6877C45.7443 56.6181 45.8613 56.509 45.9417 56.3734L46.547 56.6502C46.3013 57.0982 45.833 57.4135 45.223 57.4135C44.3673 57.4135 43.7187 56.7715 43.7187 55.9314C43.7187 55.0913 44.3567 54.4494 45.198 54.4494C46.138 54.4476 46.7973 55.2439 46.6447 56.1969ZM44.4873 55.6252H45.9073C45.8637 55.4683 45.7697 55.3307 45.6407 55.2337C45.5117 55.1367 45.3543 55.0858 45.194 55.0889C45.035 55.0895 44.8807 55.142 44.7533 55.2385C44.626 55.3351 44.533 55.4707 44.4873 55.6252Z" fill="#313131"/>
    <path d="M49.4337 56.6208C49.4337 57.1072 48.9167 57.4116 48.219 57.4116C47.7067 57.4116 47.2133 57.2399 46.9063 56.9312L47.309 56.4286C47.5653 56.6772 47.9683 56.7709 48.219 56.7709C48.5297 56.7709 48.671 56.6508 48.671 56.5054C48.671 56.2899 48.442 56.2346 48.1103 56.2346H47.7013V55.6251H48.1103C48.442 55.6251 48.671 55.5699 48.671 55.3543C48.671 55.2108 48.5297 55.0889 48.219 55.0889C47.9683 55.0889 47.5653 55.1831 47.309 55.4371L46.9063 54.9285C47.211 54.6187 47.7067 54.4481 48.219 54.4481C48.9167 54.4481 49.4337 54.752 49.4337 55.2444C49.4337 55.5597 49.197 55.8527 48.644 55.9302C49.194 56.007 49.4337 56.3001 49.4337 56.6208Z" fill="#313131"/>
    <path d="M51.3787 54.4475C52.234 54.4475 52.8827 55.0889 52.8827 55.9296C52.8827 56.7703 52.2317 57.4116 51.3787 57.4116C50.5253 57.4116 49.8777 56.7697 49.8777 55.9296C49.8777 55.0894 50.523 54.4475 51.3787 54.4475ZM51.3787 56.7294C51.8033 56.7294 52.1193 56.3865 52.1193 55.9278C52.1193 55.469 51.8033 55.1315 51.3787 55.1315C50.9537 55.1315 50.6377 55.4762 50.6377 55.9296C50.6377 56.383 50.959 56.7312 51.3787 56.7312V56.7294Z" fill="#313131"/>
    <path d="M53.3883 57.3558V54.5028H54.1243V55.6029H55.399V54.5028H56.1343V57.3558H55.399V56.2568H54.1243V57.3558H53.3883Z" fill="#313131"/>
    <path d="M57.1693 54.4553C57.2983 54.4569 57.4217 54.5101 57.5123 54.6032C57.6033 54.6964 57.6543 54.8221 57.6543 54.9532C57.6543 55.0844 57.603 55.2103 57.5117 55.3031C57.42 55.3959 57.296 55.448 57.167 55.448C57.0377 55.448 56.9137 55.3959 56.822 55.3031C56.7307 55.2103 56.6793 55.0844 56.6793 54.9532C56.679 54.8878 56.6913 54.8229 56.716 54.7624C56.7403 54.7019 56.7767 54.6469 56.822 54.6007C56.8677 54.5544 56.9217 54.5177 56.9813 54.4928C57.041 54.4678 57.1047 54.4551 57.1693 54.4553ZM57.1693 56.4184C57.2983 56.42 57.4217 56.4731 57.5123 56.5663C57.6033 56.6595 57.6543 56.7852 57.6543 56.9162C57.6543 57.0475 57.603 57.1733 57.5117 57.2661C57.42 57.3589 57.296 57.4111 57.167 57.4111C57.0377 57.4111 56.9137 57.3589 56.822 57.2661C56.7307 57.1733 56.6793 57.0475 56.6793 56.9162C56.6787 56.8506 56.691 56.7855 56.7153 56.7248C56.7397 56.664 56.7757 56.6087 56.8213 56.5622C56.8667 56.5156 56.921 56.4788 56.9807 56.4537C57.0407 56.4285 57.1047 56.4158 57.1693 56.416V56.4184Z" fill="#313131"/>
    <path d="M61.3097 54.5028H62.6443V57.3558H61.9527V54.6685L61.1897 57.3558H59.8547V54.5028H60.547V57.2122L61.3097 54.5028Z" fill="#313131"/>
    <path d="M64.714 54.5028H66.0493V57.3558H65.3573V54.6685L64.5947 57.3558H63.2597V54.5028H63.9513V57.2122L64.714 54.5028Z" fill="#313131"/>
    </g>
    <defs>
    <clipPath id="clip0_0_1">
    <rect width="71" height="10" fill="white" transform="translate(0 51)"/>
    </clipPath>
    </defs>
    </svg>
    