<svg width="83" height="71" viewBox="0 0 83 71" fill="none" xmlns="http://www.w3.org/2000/svg">
    <rect width="83" height="71" rx="6" fill="white"/>
    <rect x="19.75" y="6.75" width="43.5" height="45.5" rx="2.25" stroke="#313131" stroke-width="1.5"/>
    <path d="M53.8262 17.75C53.6468 18.1385 53.4293 18.6081 53.1973 19.1182C52.581 20.473 51.8461 22.1237 51.3877 23.2666C51.3396 23.3864 51.1979 23.5485 50.8643 23.7148C50.54 23.8765 50.1224 23.9975 49.6816 24.082C49.3509 24.1455 49.0262 24.1812 48.75 24.2061V17.75H53.8262Z" stroke="#313131" stroke-width="1.5"/>
    <path d="M53.8262 27.75C53.6468 28.1385 53.4293 28.6081 53.1973 29.1182C52.581 30.473 51.8461 32.1237 51.3877 33.2666C51.3396 33.3864 51.1979 33.5485 50.8643 33.7148C50.54 33.8765 50.1224 33.9975 49.6816 34.082C49.3509 34.1455 49.0262 34.1812 48.75 34.2061V27.75H53.8262Z" stroke="#313131" stroke-width="1.5"/>
    <path d="M53.8262 37.75C53.6468 38.1385 53.4293 38.6081 53.1973 39.1182C52.581 40.473 51.8461 42.1237 51.3877 43.2666C51.3396 43.3864 51.1979 43.5485 50.8643 43.7148C50.54 43.8765 50.1224 43.9975 49.6816 44.082C49.3509 44.1455 49.0262 44.1812 48.75 44.2061V37.75H53.8262Z" stroke="#313131" stroke-width="1.5"/>
    <path d="M29.1738 17.75C29.3532 18.1385 29.5707 18.6081 29.8027 19.1182C30.419 20.473 31.1539 22.1237 31.6123 23.2666C31.6604 23.3864 31.8021 23.5485 32.1357 23.7148C32.46 23.8765 32.8776 23.9975 33.3184 24.082C33.6491 24.1455 33.9738 24.1812 34.25 24.2061V17.75H29.1738Z" stroke="#313131" stroke-width="1.5"/>
    <path d="M29.1738 27.75C29.3532 28.1385 29.5707 28.6081 29.8027 29.1182C30.419 30.473 31.1539 32.1237 31.6123 33.2666C31.6604 33.3864 31.8021 33.5485 32.1357 33.7148C32.46 33.8765 32.8776 33.9975 33.3184 34.082C33.6491 34.1455 33.9738 34.1812 34.25 34.2061V27.75H29.1738Z" stroke="#313131" stroke-width="1.5"/>
    <path d="M29.1738 37.75C29.3532 38.1385 29.5707 38.6081 29.8027 39.1182C30.419 40.473 31.1539 42.1237 31.6123 43.2666C31.6604 43.3864 31.8021 43.5485 32.1357 43.7148C32.46 43.8765 32.8776 43.9975 33.3184 44.082C33.6491 44.1455 33.9738 44.1812 34.25 44.2061V37.75H29.1738Z" stroke="#313131" stroke-width="1.5"/>
    <rect x="34.75" y="13.75" width="13.5" height="33.5" rx="2.25" stroke="#313131" stroke-width="1.5"/>
    <circle cx="41.5" cy="20.5" r="3.75" fill="#FF0000" stroke="#313131" stroke-width="1.5"/>
    <circle cx="41.5" cy="30.5" r="3.75" fill="#E6FF2C" stroke="#313131" stroke-width="1.5"/>
    <circle cx="41.5" cy="40.5" r="3.75" fill="#00AA61" stroke="#313131" stroke-width="1.5"/>
    <line x1="41.75" y1="47" x2="41.75" y2="52" stroke="#313131" stroke-width="1.5"/>
    <circle cx="56.5" cy="46.5" r="1" stroke="#313131"/>
    <circle cx="54.5" cy="13.5" r="1" stroke="#313131"/>
    <circle cx="28.5" cy="13.5" r="1" stroke="#313131"/>
    <circle cx="23.5" cy="42.5" r="1" stroke="#313131"/>
    <circle cx="27.5" cy="46.5" r="1" stroke="#313131"/>
    <circle cx="59.5" cy="39.5" r="1" stroke="#313131"/>
    <circle cx="50.5" cy="10.5" r="1" stroke="#313131"/>
    <circle cx="23.5" cy="14.5" r="1" stroke="#313131"/>
    <path d="M59.5 7V12L57.5 14H55" stroke="#313131"/>
    <path d="M25 7.5V9.5L28 12.5" stroke="#313131"/>
    <path d="M23 52V43" stroke="#313131"/>
    <path d="M60 51.5V49.5L57.5 47" stroke="#313131"/>
    <path d="M25 52V49L26.5 47.5" stroke="#313131"/>
    <path d="M23 7.5V14" stroke="#313131"/>
    <path d="M63 46H61.5L59.5 44V40.5" stroke="#313131"/>
    <g clip-path="url(#clip0_1_100)">
    <path d="M39.461 59.5702L38.0565 58.1446H37.0773L35.6727 59.5702L36.1762 60.0812L37.211 59.0304V65.0102H28.2904V65.7326H37.9228V59.0304L38.9582 60.0812L39.461 59.5702Z" fill="#313131"/>
    <path d="M11.2067 62.8573C10.6919 62.8573 10.3914 63.1576 10.2843 63.5347H10.1115V62.8946H9.3471V66.7931H10.1115V65.1801H10.2843C10.3866 65.5524 10.6872 65.8059 11.2067 65.8059C11.7516 65.8059 12.3528 65.2264 12.3528 64.3322C12.3528 63.438 11.7516 62.8573 11.2067 62.8573ZM10.8517 65.1333C10.3884 65.1333 10.1133 64.773 10.1133 64.3322C10.1133 63.8914 10.3866 63.5305 10.8517 63.5305C11.3167 63.5305 11.5907 63.8908 11.5907 64.3322C11.5907 64.7736 11.3185 65.1333 10.8517 65.1333Z" fill="#313131"/>
    <path d="M28.8927 58.1061C27.991 58.1061 27.3899 58.6856 27.3899 59.5798C27.3899 60.4739 27.991 61.0558 28.8927 61.0558C29.7944 61.0558 30.3956 60.4769 30.3956 59.5822C30.3956 58.6874 29.7944 58.1061 28.8927 58.1061ZM28.8927 60.3815C28.4295 60.3815 28.1543 60.0211 28.1543 59.5798C28.1543 59.1384 28.4295 58.7787 28.8927 58.7787C29.356 58.7787 29.6317 59.139 29.6317 59.5798C29.6317 60.0205 29.3613 60.3815 28.8927 60.3815Z" fill="#313131"/>
    <path d="M8.78675 58.1427H8.02232V60.3352H6.88632V58.1427H6.12247V61.0072H8.56251V61.8034H9.29617V60.3352H8.78675V58.1427Z" fill="#313131"/>
    <path d="M32.2605 57.8377C32.8818 57.8377 33.2131 57.517 33.2587 57H32.6629C32.6422 57.1862 32.5404 57.3411 32.2605 57.3411C31.9955 57.3411 31.8783 57.1862 31.8576 57H31.2642C31.3074 57.517 31.644 57.8377 32.2605 57.8377Z" fill="#313131"/>
    <path d="M32.357 58.1427L31.7766 60.3094L31.7257 60.749H31.5778L31.6079 59.8956V58.1427H30.8542V61.0072H32.2961L32.8718 58.8405L32.9226 58.401H33.0705L33.0398 59.2543V61.0072H33.7936V58.1427H32.357Z" fill="#313131"/>
    <path d="M11.8344 58.8405L11.8853 58.401H12.0326L12.0024 59.2543V61.0072H12.7562V58.1427H11.3196L10.7386 60.3094L10.6877 60.749H10.5398L10.5706 59.8956V58.1427H9.8168V61.0072H11.2587L11.8344 58.8405Z" fill="#313131"/>
    <path d="M14.7301 61.0071H14.8271V62.0412H15.5761V61.0071H15.6726C16.6358 61.0071 17.1654 60.4024 17.1654 59.5749C17.1654 58.7576 16.6252 58.1583 15.7034 58.1427H15.5761V57.057H14.8271V58.1427H14.6975C13.7651 58.1583 13.2355 58.7576 13.2355 59.5749C13.2379 60.4024 13.7775 61.0071 14.7301 61.0071ZM15.5761 58.763H15.6726C16.1672 58.7787 16.3962 59.1299 16.3962 59.5749C16.3962 60.0301 16.1672 60.376 15.6726 60.3916H15.5761V58.763ZM14.7253 58.763H14.8271V60.3916H14.7153C14.236 60.376 14.0017 60.0313 14.0017 59.5749C14.0017 59.1299 14.236 58.7787 14.7253 58.763Z" fill="#313131"/>
    <path d="M6 65.759H6.76443V63.5665H7.97143V65.759H8.73587V62.8945H6V65.759Z" fill="#313131"/>
    <path d="M21.039 63.665H20.4024V62.8945H19.6379V65.759H21.039C21.7673 65.759 22.1632 65.3387 22.1632 64.7093C22.1632 64.08 21.7673 63.665 21.039 63.665ZM20.9272 65.087H20.4024V64.3166H20.9272C21.2987 64.3166 21.4005 64.4559 21.4005 64.7045C21.4005 64.9423 21.2987 65.087 20.9272 65.087Z" fill="#313131"/>
    <path d="M23.3625 62.8945H22.5981V65.759H23.3625V62.8945Z" fill="#313131"/>
    <path d="M25.8025 64.3166V64.1719C26.3273 64.089 26.4799 63.8926 26.4799 63.5461C26.4799 63.1636 26.164 62.8945 25.5883 62.8945H23.9736V65.759H25.6344C26.2764 65.759 26.6326 65.5056 26.6326 65.0246C26.6326 64.6114 26.4237 64.3886 25.8025 64.3166ZM24.7274 63.4759H25.3782C25.6279 63.4759 25.7096 63.5845 25.7096 63.7395C25.7096 63.8944 25.6279 63.9983 25.3782 63.9983H24.7274V63.4759ZM25.4611 65.1825H24.7274V64.57H25.4611C25.767 64.57 25.8587 64.6937 25.8587 64.8799C25.8587 65.066 25.767 65.1801 25.4611 65.1801V65.1825Z" fill="#313131"/>
    <path d="M22.5347 58.1061C21.633 58.1061 21.0318 58.6856 21.0318 59.5798C21.0318 60.4739 21.633 61.0558 22.5347 61.0558C23.4364 61.0558 24.0375 60.4769 24.0375 59.5822C24.0375 58.6874 23.4364 58.1061 22.5347 58.1061ZM22.5347 60.3815C22.0714 60.3815 21.7963 60.0211 21.7963 59.5798C21.7963 59.1384 22.0714 58.7787 22.5347 58.7787C22.9979 58.7787 23.2766 59.1408 23.2766 59.5798C23.2766 60.0187 23.0033 60.3815 22.5347 60.3815Z" fill="#313131"/>
    <path d="M20.6733 59.5798C20.6733 58.6856 20.0722 58.1061 19.5273 58.1061C19.0125 58.1061 18.712 58.4064 18.6055 58.7835H18.4321V58.1428H17.6694V62.0413H18.4339V60.4283H18.6072C18.709 60.8006 19.0096 61.0534 19.529 61.0534C20.074 61.0558 20.6733 60.4745 20.6733 59.5798ZM19.1705 60.3815C18.7072 60.3815 18.4321 60.0211 18.4321 59.5798C18.4321 59.1384 18.7072 58.7787 19.1705 58.7787C19.6338 58.7787 19.9095 59.139 19.9095 59.5798C19.9095 60.0205 19.6409 60.3815 19.1723 60.3815H19.1705Z" fill="#313131"/>
    <path d="M26.3249 59.5648V59.42C26.8497 59.3372 27.0041 59.1408 27.0041 58.7943C27.0041 58.4112 26.6882 58.1427 26.1125 58.1427H24.4972V61.0072H26.158C26.8 61.0072 27.1568 60.7538 27.1568 60.2728C27.1556 59.859 26.945 59.6368 26.3249 59.5648ZM25.2504 58.724H25.9013C26.1509 58.724 26.232 58.8327 26.232 58.9877C26.232 59.1426 26.1509 59.2465 25.9013 59.2465H25.2504V58.724ZM25.9841 60.4307H25.2504V59.8182H25.9841C26.2894 59.8182 26.3811 59.9419 26.3811 60.128C26.3811 60.3142 26.2894 60.4283 25.9841 60.4283V60.4307Z" fill="#313131"/>
    <path d="M18.0333 62.8573C17.5186 62.8573 17.218 63.1576 17.1109 63.5347H16.9382V62.8946H16.1767V66.7931H16.9411V65.1801H17.1139C17.2162 65.5524 17.5168 65.8059 18.0363 65.8059C18.5812 65.8059 19.1823 65.2264 19.1823 64.3322C19.1823 63.438 18.5783 62.8573 18.0333 62.8573ZM17.6783 65.1321C17.2151 65.1321 16.9399 64.7718 16.9399 64.331C16.9399 63.8902 17.2151 63.5293 17.6783 63.5293C18.1416 63.5293 18.4173 63.8896 18.4173 64.331C18.4173 64.7724 18.1452 65.1333 17.6766 65.1333L17.6783 65.1321Z" fill="#313131"/>
    <path d="M14.2124 62.8573C13.3107 62.8573 12.7096 63.4362 12.7096 64.331C12.7096 65.2258 13.3107 65.8047 14.2124 65.8047C15.1141 65.8047 15.7152 65.2252 15.7152 64.331C15.7152 63.4369 15.1117 62.8573 14.2124 62.8573ZM14.2124 65.1321C13.7485 65.1321 13.474 64.7718 13.474 64.331C13.474 63.8902 13.7485 63.5293 14.2124 63.5293C14.6763 63.5293 14.9514 63.8896 14.9514 64.331C14.9514 64.7724 14.681 65.1333 14.2124 65.1333V65.1321Z" fill="#313131"/>
    <path d="M72.681 66.3511H46.0243C45.4573 66.3511 44.8957 66.2377 44.3717 66.0174C43.8477 65.7971 43.3713 65.4742 42.9703 65.0671C42.5693 64.6601 42.251 64.1768 42.034 63.645C41.817 63.1131 41.7053 62.5431 41.7053 61.9674C41.7053 61.3917 41.817 60.8217 42.034 60.2898C42.251 59.7579 42.5693 59.2747 42.9703 58.8676C43.3713 58.4606 43.8477 58.1377 44.3717 57.9174C44.8957 57.6971 45.4573 57.5837 46.0243 57.5837H72.681C73.248 57.5837 73.8097 57.6971 74.3337 57.9174C74.8577 58.1377 75.334 58.4606 75.735 58.8676C76.136 59.2747 76.4543 59.7579 76.6713 60.2898C76.8883 60.8217 77 61.3917 77 61.9674C77 62.5431 76.8883 63.1131 76.6713 63.645C76.4543 64.1768 76.136 64.6601 75.735 65.0671C75.334 65.4742 74.8577 65.7971 74.3337 66.0174C73.8097 66.2377 73.248 66.3511 72.681 66.3511ZM46.0243 58.0004C45.507 57.994 44.9933 58.0918 44.5137 58.2883C44.0337 58.4848 43.597 58.7761 43.229 59.1452C42.8607 59.5143 42.5683 59.9538 42.369 60.4385C42.1693 60.9231 42.0667 61.4431 42.0667 61.9683C42.0667 62.4935 42.1693 63.0135 42.369 63.4981C42.5683 63.9827 42.8607 64.4223 43.229 64.7914C43.597 65.1605 44.0337 65.4517 44.5137 65.6482C44.9933 65.8448 45.507 65.9426 46.0243 65.9361H72.681C73.1983 65.9426 73.712 65.8448 74.1917 65.6482C74.6717 65.4517 75.1083 65.1605 75.4763 64.7914C75.8447 64.4223 76.137 63.9827 76.3363 63.4981C76.536 63.0135 76.6387 62.4935 76.6387 61.9683C76.6387 61.4431 76.536 60.9231 76.3363 60.4385C76.137 59.9538 75.8447 59.5143 75.4763 59.1452C75.1083 58.7761 74.6717 58.4848 74.1917 58.2883C73.712 58.0918 73.1983 57.994 72.681 58.0004H46.0243Z" fill="#03FE33"/>
    <path d="M48.025 60.4475C48.3147 60.441 48.5993 60.5245 48.841 60.6869C49.0823 60.8493 49.2693 61.0828 49.3763 61.3561L48.7007 61.5963C48.647 61.4594 48.5537 61.3422 48.433 61.2602C48.3123 61.1783 48.17 61.1355 48.025 61.1375C47.6053 61.1375 47.284 61.4804 47.284 61.9338C47.284 62.3872 47.6053 62.7355 48.025 62.7355C48.1707 62.7362 48.313 62.6923 48.4337 62.6095C48.554 62.5266 48.6473 62.4088 48.7007 62.2713L49.3763 62.5115C49.269 62.7845 49.0823 63.0178 48.8407 63.18C48.599 63.3422 48.3143 63.4255 48.025 63.4189C47.1693 63.4189 46.5213 62.7769 46.5213 61.9368C46.5213 61.0967 47.1693 60.4475 48.025 60.4475Z" fill="#313131"/>
    <path d="M52.6447 62.1969H50.4763C50.523 62.3477 50.6117 62.4817 50.7317 62.5825C50.8517 62.6835 50.998 62.7471 51.1527 62.7657C51.3077 62.7843 51.4643 62.7573 51.6043 62.6877C51.7443 62.6181 51.8613 62.509 51.9417 62.3734L52.547 62.6502C52.3013 63.0982 51.833 63.4135 51.223 63.4135C50.3673 63.4135 49.7187 62.7715 49.7187 61.9314C49.7187 61.0913 50.3567 60.4494 51.198 60.4494C52.138 60.4476 52.7973 61.2439 52.6447 62.1969ZM50.4873 61.6252H51.9073C51.8637 61.4683 51.7697 61.3307 51.6407 61.2337C51.5117 61.1367 51.3543 61.0858 51.194 61.0889C51.035 61.0895 50.8807 61.142 50.7533 61.2385C50.626 61.3351 50.533 61.4707 50.4873 61.6252Z" fill="#313131"/>
    <path d="M55.4337 62.6208C55.4337 63.1072 54.9167 63.4116 54.219 63.4116C53.7067 63.4116 53.2133 63.2399 52.9063 62.9312L53.309 62.4286C53.5653 62.6772 53.9683 62.7709 54.219 62.7709C54.5297 62.7709 54.671 62.6508 54.671 62.5054C54.671 62.2899 54.442 62.2346 54.1103 62.2346H53.7013V61.6251H54.1103C54.442 61.6251 54.671 61.5699 54.671 61.3543C54.671 61.2108 54.5297 61.0889 54.219 61.0889C53.9683 61.0889 53.5653 61.1831 53.309 61.4371L52.9063 60.9285C53.211 60.6187 53.7067 60.4481 54.219 60.4481C54.9167 60.4481 55.4337 60.752 55.4337 61.2444C55.4337 61.5597 55.197 61.8527 54.644 61.9302C55.194 62.007 55.4337 62.3001 55.4337 62.6208Z" fill="#313131"/>
    <path d="M57.3787 60.4475C58.234 60.4475 58.8827 61.0889 58.8827 61.9296C58.8827 62.7703 58.2317 63.4116 57.3787 63.4116C56.5253 63.4116 55.8777 62.7697 55.8777 61.9296C55.8777 61.0894 56.523 60.4475 57.3787 60.4475ZM57.3787 62.7294C57.8033 62.7294 58.1193 62.3865 58.1193 61.9278C58.1193 61.469 57.8033 61.1315 57.3787 61.1315C56.9537 61.1315 56.6377 61.4762 56.6377 61.9296C56.6377 62.383 56.959 62.7312 57.3787 62.7312V62.7294Z" fill="#313131"/>
    <path d="M59.3883 63.3558V60.5028H60.1243V61.6029H61.399V60.5028H62.1343V63.3558H61.399V62.2568H60.1243V63.3558H59.3883Z" fill="#313131"/>
    <path d="M63.1693 60.4553C63.2983 60.4569 63.4217 60.5101 63.5123 60.6032C63.6033 60.6964 63.6543 60.8221 63.6543 60.9532C63.6543 61.0844 63.603 61.2103 63.5117 61.3031C63.42 61.3959 63.296 61.448 63.167 61.448C63.0377 61.448 62.9137 61.3959 62.822 61.3031C62.7307 61.2103 62.6793 61.0844 62.6793 60.9532C62.679 60.8878 62.6913 60.8229 62.716 60.7624C62.7403 60.7019 62.7767 60.6469 62.822 60.6007C62.8677 60.5544 62.9217 60.5177 62.9813 60.4928C63.041 60.4678 63.1047 60.4551 63.1693 60.4553ZM63.1693 62.4184C63.2983 62.42 63.4217 62.4731 63.5123 62.5663C63.6033 62.6595 63.6543 62.7852 63.6543 62.9162C63.6543 63.0475 63.603 63.1733 63.5117 63.2661C63.42 63.3589 63.296 63.4111 63.167 63.4111C63.0377 63.4111 62.9137 63.3589 62.822 63.2661C62.7307 63.1733 62.6793 63.0475 62.6793 62.9162C62.6787 62.8506 62.691 62.7855 62.7153 62.7248C62.7397 62.664 62.7757 62.6087 62.8213 62.5622C62.8667 62.5156 62.921 62.4788 62.9807 62.4537C63.0407 62.4285 63.1047 62.4158 63.1693 62.416V62.4184Z" fill="#313131"/>
    <path d="M67.3097 60.5028H68.6443V63.3558H67.9527V60.6685L67.1897 63.3558H65.8547V60.5028H66.547V63.2122L67.3097 60.5028Z" fill="#313131"/>
    <path d="M70.714 60.5028H72.0493V63.3558H71.3573V60.6685L70.5947 63.3558H69.2597V60.5028H69.9513V63.2122L70.714 60.5028Z" fill="#313131"/>
    </g>
    <defs>
    <clipPath id="clip0_1_100">
    <rect width="71" height="10" fill="white" transform="translate(6 57)"/>
    </clipPath>
    </defs>
    </svg>
    